<svg xmlns="http://www.w3.org/2000/svg" viewBox="0 0 397.16 338.49"><defs><style>.cls-1{fill:#e61e23;}.cls-2{fill:#fab419;}.cls-3{font-size:32.19px;fill:#303030;font-family:Poppins-Bold, Poppins;font-weight:700;letter-spacing:1em;}</style></defs><title>logo-engel-burger</title><g id="Capa_2" data-name="Capa 2"><g id="Capa_1-2" data-name="Capa 1"><path class="cls-1" d="M371.68,188.68a5.16,5.16,0,0,0-3.44,1.56,25.29,25.29,0,0,1-6.16,4.06,14.52,14.52,0,0,1-6,1.56,10.33,10.33,0,0,1-7.64-2.81c-1.87-1.87-3.18-4.94-3.9-9.21a232.35,232.35,0,0,0,27.85-48.37Q382.6,111,382.6,92.4q0-12.95-4.29-19.89t-11.78-7q-13.27,0-22.86,17.48t-14.51,41.82q-4.92,24.35-4.92,43.38a95.15,95.15,0,0,0,.93,13.64,52.65,52.65,0,0,1-13.49,10.62q-9,4.92-16,4.92-10.94,0-14.83-7.18Q299.28,185.71,307,178a25.22,25.22,0,0,0,7.72-18.49q0-9.21-5.46-14.59t-14.51-5.38A31.61,31.61,0,0,0,276.57,145,37.1,37.1,0,0,0,264,159.73a45.13,45.13,0,0,0-4.52,20.05c0,.61,0,1.19.06,1.78-6.21,4.17-12.62,8.81-19.25,14,.51-3.32,1-6.47,1.48-9.43s.91-5.7,1.32-8.2q3.28-19.66,3.9-24.5a20.81,20.81,0,0,0,.16-3q0-3.44-1.64-4.6T240,144.68a33.25,33.25,0,0,0-6.86.62,11.24,11.24,0,0,0-2-4.76c-.78-.88-2.32-1.32-4.61-1.32A34.68,34.68,0,0,0,206.2,146,49.31,49.31,0,0,0,190.83,164a50.69,50.69,0,0,0-5.74,22.63c-2.08,2.27-3.89,4.09-5.41,5.45q-4.31,3.83-7.42,3.83-4.51,0-4.52-6.25,0-4.37,3-17.94,3.44-15.91,3.44-22,0-10.14-10.15-10.14-5.15,0-11.31,3.59t-12.56,12q-6.41,8.43-11.55,21.85a111,111,0,0,1,1.57-11.55q.93-4.68,2.49-10.92,2.34-8.74,2.34-11.24a3.2,3.2,0,0,0-1.25-3,8.79,8.79,0,0,0-4.37-.78q-5.77,0-9,2.1a11.8,11.8,0,0,0-4.6,6.63A126.53,126.53,0,0,0,110,185a143.1,143.1,0,0,1-21.8,6.23,132.81,132.81,0,0,1-27.38,3.05q-19.66,0-28.72-4.92t-9-14.59A17.67,17.67,0,0,1,26.92,164q3.81-5.07,12.32-8.35T60.7,152q9.36-.15,9.36-10.45,0-3.28-1.4-4.69t-4.84-1.56q-13.57-.47-19.58-5.22a14.79,14.79,0,0,1-6-12.1,17.59,17.59,0,0,1,8-15.13q8-5.62,21.22-5.62,9.82,0,14,3.51a11.33,11.33,0,0,1,4.22,9.13,57.6,57.6,0,0,1-.79,7,24,24,0,0,0-.78,5.78,7,7,0,0,0,2.5,5.85,10.88,10.88,0,0,0,6.87,1.95q6.24,0,9.59-5.7t3.36-14.9q0-13.26-9.68-21.61t-29-8.35A72.06,72.06,0,0,0,41.35,84.6,45.4,45.4,0,0,0,22.24,97.94a30.48,30.48,0,0,0-7.1,19.9,24.74,24.74,0,0,0,4.91,15q4.92,6.7,14.12,9.36Q17.33,146.4,8.66,155.83A32.64,32.64,0,0,0,0,178.69a26.89,26.89,0,0,0,6.48,17.64q6.46,7.8,19.74,12.24T59.14,213A167.48,167.48,0,0,0,88,210.45q14.35-2.53,23.48-6.77a26.19,26.19,0,0,0,.93,3.1q2.43,6.24,8.35,6.24c3.23,0,5.59-.86,7.1-2.57s2.84-5,4-9.91a107.07,107.07,0,0,1,6.16-18.1,84.53,84.53,0,0,1,7.49-13.81q3.67-5.24,5.7-5.23c1.14,0,1.72.84,1.72,2.5q0,3.73-2,13.57-2.19,11.24-2.19,15.61,0,8.73,4.06,13.34t12,4.6a30.31,30.31,0,0,0,17.55-5.3,61.86,61.86,0,0,0,6.27-5,23.67,23.67,0,0,0,2.23,3.28q5.78,7,15.45,7a18.84,18.84,0,0,0,15.45-8.74l-.94,6.09q-24,18.57-32.77,31.28t-8.74,23.8q0,8,5,12.87t12.95,4.92q14.82,0,24.42-18.49T237.17,214l10-6.71q5.31-3.72,15.81-10.82a28.44,28.44,0,0,0,5.57,7.7q9,8.9,25.43,8.89a45.17,45.17,0,0,0,22.55-5.93,63.24,63.24,0,0,0,13.09-9.48c.47,1,1,2,1.5,3Q338,213,352.8,213a28.08,28.08,0,0,0,18.41-6.71,12.9,12.9,0,0,0,4.68-10.45,10.27,10.27,0,0,0-1.17-5.07A3.46,3.46,0,0,0,371.68,188.68ZM207.76,258.74q-4.92,9.36-8.82,9.36a3.58,3.58,0,0,1-3.35-1.71,8.46,8.46,0,0,1-1-4.37q0-6.24,5.3-14.51t17.32-18.57Q212.67,249.37,207.76,258.74Zm15.68-78.33q-1.4,8.11-4.68,12.48t-6.86,4.37a6.64,6.64,0,0,1-5.39-2.34q-1.95-2.34-1.95-7.18a42.23,42.23,0,0,1,3.28-16.54,33.46,33.46,0,0,1,8.74-12.56,18.4,18.4,0,0,1,11.86-4.91Zm54.93-2.65q0-9.52,4-16.23t9.75-6.71a5.76,5.76,0,0,1,4.45,1.79,6.81,6.81,0,0,1,1.63,4.76q0,5.77-5.3,10.14t-14.51,6.56ZM347,126.11A212.73,212.73,0,0,1,355,94Q359.51,81,363.1,81q4.36,0,4.36,11.86,0,15.13-6.55,33.47a201.26,201.26,0,0,1-17.63,36.59A231.49,231.49,0,0,1,347,126.11Z"/><path class="cls-2" d="M371.21,218.39l-8.62.06a39.77,39.77,0,0,1-10.47,1.65,39.19,39.19,0,0,1-11.82-1.48l-31.29.23a56.11,56.11,0,0,1-15.7,2.61,54.41,54.41,0,0,1-17.93-2.36l-29.31.21c-3.58,20.69-8.34,36.94-14.53,49.58a59,59,0,0,1-7.15,11.33H360.86a32.34,32.34,0,0,0,32.33-33.09l-.18-7.59A21.64,21.64,0,0,0,371.21,218.39Z"/><path class="cls-2" d="M169,266.13c-.22-9.55,3.12-19.66,9.92-30.07a102.12,102.12,0,0,1,12.77-15.33c-.64-.3-1.26-.66-1.88-1l-7.17.05a41.19,41.19,0,0,1-18.46,4.68c-7.4.18-12.68-1.9-16.34-4.42l-13.81.1c-2.62,2.57-7,5.19-13.84,5.35a18.54,18.54,0,0,1-13.58-5.15l-4.76,0c-3.85,1.15-8,2.17-12.63,3.09a179.51,179.51,0,0,1-30.64,3.45c-14.2.33-26.45-1.07-36.42-4.16-1.08-.33-2.12-.7-3.15-1.07A21.65,21.65,0,0,0,3,245l.72,6.48a32.33,32.33,0,0,0,32.15,28.76H172.75A29.43,29.43,0,0,1,169,266.13Z"/><path class="cls-2" d="M14,91.18A56.14,56.14,0,0,1,37.48,74.67a83,83,0,0,1,30.24-5.41c15.46,0,27.57,3.68,36,10.94a38,38,0,0,1,13.38,29.68,44.28,44.28,0,0,1-2.45,15.19l203,3.21c.33-1.83.67-3.66,1-5.53,3.47-17.21,8.73-32.3,15.62-44.84,9.07-16.52,19.95-21.7,28.5-22.77l-.32-.19L327.46,35.24A274.7,274.7,0,0,0,73.74,27.17l-37.37,18A59.23,59.23,0,0,0,2.83,98.53V105a18.54,18.54,0,0,0,1.92,8.21A40.81,40.81,0,0,1,14,91.18Z"/><path class="cls-2" d="M73.45,122.68a34.31,34.31,0,0,1,1-7.83,49.66,49.66,0,0,0,.6-5c0-.61,0-.64-.38-.93,0,0-1.65-1-7.22-1-6.56,0-11.63,1.23-15.07,3.67A7,7,0,0,0,48.89,118a4.21,4.21,0,0,0,2,3.74c.58.46,2.58,1.73,7.61,2.45l15.08.24C73.5,123.84,73.45,123.27,73.45,122.68Z"/><text class="cls-3" transform="translate(24.18 318.98)">BURGERS</text></g></g></svg>